<svg id="Layer_1" data-name="Layer 1" xmlns="http://www.w3.org/2000/svg" viewBox="0 0 95.74 279.27"><defs><style>.cls-1,.cls-3{fill:#fff;}.cls-1,.cls-4{stroke:#231f20;stroke-miterlimit:10;}.cls-2,.cls-5{fill:#231f20;}.cls-4{fill:none;}.cls-5{font-size:11.86px;font-family:MyriadPro-Regular, Myriad Pro;}.cls-6{letter-spacing:0em;}</style></defs><title>parent_child</title><circle class="cls-1" cx="47.87" cy="231.4" r="47.37"/><path class="cls-2" d="M231.83,314.43a8.18,8.18,0,0,1-3.09.5c-3.29,0-5.77-1.9-5.77-5.39s2.48-5.6,6.1-5.6a6.83,6.83,0,0,1,2.78.47l-.36,1.12a6,6,0,0,0-2.36-.44c-2.75,0-4.57,1.6-4.57,4.4,0,2.61,1.65,4.29,4.5,4.29a6.72,6.72,0,0,0,2.46-.44Z" transform="translate(-193.53 -88.82)"/><path class="cls-2" d="M233.67,303.54h1.53v4.78h0a2.74,2.74,0,0,1,1.09-1,3.38,3.38,0,0,1,1.57-.4c1.12,0,2.93.64,2.93,3.28v4.56h-1.53v-4.4c0-1.24-.5-2.28-1.94-2.28a2.18,2.18,0,0,0-2,1.39,1.51,1.51,0,0,0-.1.66v4.63h-1.53Z" transform="translate(-193.53 -88.82)"/><path class="cls-2" d="M245,305a.95.95,0,0,1-1.89,0,.89.89,0,0,1,.95-.87A.87.87,0,0,1,245,305Zm-1.7,9.82v-7.66h1.52v7.66Z" transform="translate(-193.53 -88.82)"/><path class="cls-2" d="M247.36,303.54h1.52v11.24h-1.52Z" transform="translate(-193.53 -88.82)"/><path class="cls-2" d="M258.7,303.54v9.26c0,.68,0,1.45.07,2H257.4l-.07-1.33h0a3.18,3.18,0,0,1-2.87,1.5,3.62,3.62,0,0,1-3.59-3.89,3.81,3.81,0,0,1,3.77-4.12,2.9,2.9,0,0,1,2.53,1.17h0v-4.57Zm-1.53,6.69a2.29,2.29,0,0,0-.06-.58A2.21,2.21,0,0,0,254.9,308c-1.58,0-2.51,1.27-2.51,3s.83,2.84,2.48,2.84a2.27,2.27,0,0,0,2.24-1.67,2.31,2.31,0,0,0,.06-.6Z" transform="translate(-193.53 -88.82)"/><path class="cls-2" d="M225.88,324.26h-3.56v-1.17H231v1.17h-3.57v9.5h-1.53Z" transform="translate(-193.53 -88.82)"/><path class="cls-2" d="M238.6,329.87a3.92,3.92,0,0,1-4.18,4.06,3.81,3.81,0,0,1-4-3.94,3.91,3.91,0,0,1,4.17-4.06A3.79,3.79,0,0,1,238.6,329.87Zm-6.66.08a2.68,2.68,0,0,0,2.55,2.94,2.71,2.71,0,0,0,2.55-3,2.68,2.68,0,0,0-2.52-2.94C232.72,327,231.94,328.49,231.94,330Z" transform="translate(-193.53 -88.82)"/><path class="cls-2" d="M240.52,328.6c0-1,0-1.77-.07-2.5h1.37l.07,1.31h0a3.37,3.37,0,0,1,3-1.48,3.59,3.59,0,0,1,3.56,3.89,3.76,3.76,0,0,1-3.82,4.11,3,3,0,0,1-2.58-1.2h0v4.16h-1.51Zm1.51,2a3.17,3.17,0,0,0,.07.57,2.33,2.33,0,0,0,2.29,1.63c1.61,0,2.55-1.2,2.55-3a2.57,2.57,0,0,0-2.5-2.85,2.38,2.38,0,0,0-2.3,1.73,1.8,1.8,0,0,0-.11.57Z" transform="translate(-193.53 -88.82)"/><path class="cls-2" d="M252.09,324a1,1,0,0,1-1.89,0,.89.89,0,0,1,1-.87A.87.87,0,0,1,252.09,324Zm-1.7,9.81V326.1h1.53v7.66Z" transform="translate(-193.53 -88.82)"/><path class="cls-2" d="M260.44,333.47a6.1,6.1,0,0,1-2.42.45c-2.53,0-4.18-1.57-4.18-3.91s1.77-4.07,4.51-4.07a5.51,5.51,0,0,1,2.12.4l-.35,1.07a3.79,3.79,0,0,0-1.77-.36,2.88,2.88,0,1,0-.05,5.76,4.81,4.81,0,0,0,1.88-.38Z" transform="translate(-193.53 -88.82)"/><circle class="cls-1" cx="47.87" cy="47.87" r="47.37"/><path class="cls-2" d="M221.14,120.71a19.15,19.15,0,0,1,2.9-.21,5.14,5.14,0,0,1,3.28.89,2.75,2.75,0,0,1,1,2.23,3,3,0,0,1-.9,2.28,5.15,5.15,0,0,1-3.57,1.17,5.62,5.62,0,0,1-1.22-.1v4.28h-1.51Zm1.51,5.14a5.51,5.51,0,0,0,1.25.11c1.82,0,2.93-.81,2.93-2.28s-1.09-2.09-2.76-2.09a7.15,7.15,0,0,0-1.42.11Z" transform="translate(-193.53 -88.82)"/><path class="cls-2" d="M234.52,131.25l-.12-1h-.06a3.22,3.22,0,0,1-2.56,1.14,2.3,2.3,0,0,1-2.57-2.2c0-1.85,1.8-2.86,5-2.85v-.16c0-.63-.19-1.77-1.91-1.77a4.48,4.48,0,0,0-2.19.57l-.34-.92a5.59,5.59,0,0,1,2.75-.68c2.57,0,3.2,1.6,3.2,3.14v2.86a9.43,9.43,0,0,0,.14,1.84Zm-.23-3.91c-1.66,0-3.56.24-3.56,1.72a1.3,1.3,0,0,0,1.44,1.33,2.1,2.1,0,0,0,2-1.28,1.36,1.36,0,0,0,.08-.44Z" transform="translate(-193.53 -88.82)"/><path class="cls-2" d="M238.23,126c0-.9,0-1.68-.07-2.39h1.34l.05,1.5h.07a2.49,2.49,0,0,1,2.32-1.68,2,2,0,0,1,.44,0v1.31a2.79,2.79,0,0,0-.53,0,2.06,2.06,0,0,0-2,1.79,3.06,3.06,0,0,0-.07.64v4.09h-1.51Z" transform="translate(-193.53 -88.82)"/><path class="cls-2" d="M244.58,127.67a2.58,2.58,0,0,0,2.88,2.66,6,6,0,0,0,2.32-.4l.26,1a7.39,7.39,0,0,1-2.79.47c-2.59,0-4.13-1.55-4.13-3.86a3.86,3.86,0,0,1,3.94-4.13,3.35,3.35,0,0,1,3.47,3.61,6.41,6.41,0,0,1-.05.65Zm4.47-1a2,2,0,0,0-2.11-2.26,2.42,2.42,0,0,0-2.35,2.26Z" transform="translate(-193.53 -88.82)"/><path class="cls-2" d="M252.42,125.66c0-.79,0-1.44-.07-2.07h1.35l.09,1.26h0a3.17,3.17,0,0,1,2.78-1.44c1.16,0,3,.64,3,3.26v4.58H258v-4.42c0-1.23-.5-2.26-1.94-2.26a2.15,2.15,0,0,0-2.05,1.42,1.84,1.84,0,0,0-.11.65v4.61h-1.52Z" transform="translate(-193.53 -88.82)"/><path class="cls-2" d="M263.81,121.39v2.2H266v1.06h-2.19v4.13c0,.95.3,1.49,1.15,1.49a3.47,3.47,0,0,0,.88-.1l.07,1a3.8,3.8,0,0,1-1.35.19,2.24,2.24,0,0,1-1.65-.58,2.67,2.67,0,0,1-.59-2v-4.18H261v-1.06h1.3v-1.84Z" transform="translate(-193.53 -88.82)"/><path class="cls-2" d="M226.33,140.74h-3.56v-1.18h8.66v1.18h-3.57v9.49h-1.53Z" transform="translate(-193.53 -88.82)"/><path class="cls-2" d="M239,146.34a3.92,3.92,0,0,1-4.18,4.06,3.81,3.81,0,0,1-4-3.94A3.91,3.91,0,0,1,235,142.4,3.79,3.79,0,0,1,239,146.34Zm-6.66.08a2.58,2.58,0,1,0,2.59-3C233.16,143.44,232.38,145,232.38,146.42Z" transform="translate(-193.53 -88.82)"/><path class="cls-2" d="M241,145.07c0-1,0-1.77-.07-2.5h1.37l.07,1.31h0a3.4,3.4,0,0,1,3-1.48,3.59,3.59,0,0,1,3.56,3.89,3.76,3.76,0,0,1-3.82,4.11,3.05,3.05,0,0,1-2.59-1.2h0v4.16H241Zm1.51,2a2.47,2.47,0,0,0,.07.57,2.33,2.33,0,0,0,2.29,1.63c1.61,0,2.55-1.2,2.55-3a2.57,2.57,0,0,0-2.5-2.85,2.41,2.41,0,0,0-2.31,1.73,2.13,2.13,0,0,0-.1.57Z" transform="translate(-193.53 -88.82)"/><path class="cls-2" d="M252.54,140.42a1,1,0,0,1-1.89,0,.89.89,0,0,1,.95-.87A.87.87,0,0,1,252.54,140.42Zm-1.7,9.81v-7.66h1.53v7.66Z" transform="translate(-193.53 -88.82)"/><path class="cls-2" d="M260.88,149.94a6,6,0,0,1-2.41.45c-2.53,0-4.18-1.57-4.18-3.91s1.77-4.07,4.51-4.07a5.55,5.55,0,0,1,2.12.4l-.35,1.07a3.82,3.82,0,0,0-1.77-.36,2.77,2.77,0,0,0-3,2.9,2.74,2.74,0,0,0,2.92,2.86,4.71,4.71,0,0,0,1.87-.38Z" transform="translate(-193.53 -88.82)"/><line class="cls-3" x1="49.68" y1="99.77" x2="49.68" y2="179.39"/><line class="cls-4" x1="49.68" y1="99.77" x2="49.68" y2="173.42"/><polygon class="cls-2" points="45.98 170.62 49.68 172.19 53.38 170.62 49.68 179.39 45.98 170.62"/><text class="cls-5" transform="matrix(0.01, 1, -1, 0.01, 59.7, 97.98)">depende<tspan class="cls-6" x="44.54" y="0">n</tspan><tspan x="51.08" y="0">t_on</tspan></text></svg>